<svg width="268" height="178" viewBox="0 0 268 178" fill="none" xmlns="http://www.w3.org/2000/svg">
<path d="M222.5 1V120.5C223 134.5 213.5 164.2 171.5 171C201.5 180.833 262.6 184.5 267 120.5V1H222.5Z" fill="white" stroke="black" stroke-width="2"/>
<path d="M1.5 38L91 73.5C106.667 79.1667 138 102 138 148L53 113.5C35.8333 105.667 1.5 79.6 1.5 38Z" fill="white" stroke="black" stroke-width="2"/>
<path d="M1 122C6.66667 133.167 29.4 159.8 75 177H1V122Z" fill="white" stroke="black" stroke-width="2"/>
<path fill-rule="evenodd" clip-rule="evenodd" d="M138 1H62.5C108.5 13 132 43.6667 138 57.5C138.039 57.3331 138.079 57.1664 138.12 57H138V1Z" fill="white"/>
<path d="M62.5 1V0L62.2476 1.96762L62.5 1ZM138 1H139V0H138V1ZM138 57.5L137.083 57.8979L138.281 60.6612L138.973 57.7298L138 57.5ZM138.12 57L139.091 57.2361L139.392 56H138.12V57ZM138 57H137V58H138V57ZM62.5 2H138V0H62.5V2ZM138.917 57.1021C132.803 43.0054 109.069 12.115 62.7524 0.0323827L62.2476 1.96762C107.931 13.885 131.197 44.3279 137.083 57.8979L138.917 57.1021ZM137.148 56.7639C137.107 56.9324 137.067 57.1012 137.027 57.2702L138.973 57.7298C139.012 57.565 139.052 57.4004 139.091 57.2361L137.148 56.7639ZM138.12 56H138V58H138.12V56ZM139 57V1H137V57H139Z" fill="black"/>
</svg>
