<svg width="272" height="182" viewBox="0 0 272 182" fill="none" xmlns="http://www.w3.org/2000/svg">
<path d="M224.5 3V122.5C225 136.5 215.5 166.2 173.5 173C203.5 182.833 264.6 186.5 269 122.5V3H224.5Z" fill="black" stroke="white" stroke-width="5"/>
<path d="M3.5 40L93 75.5C108.667 81.1667 140 104 140 150L55 115.5C37.8333 107.667 3.5 81.6 3.5 40Z" fill="black" stroke="white" stroke-width="5"/>
<path d="M3 124C8.66667 135.167 31.4 161.8 77 179H3V124Z" fill="black" stroke="white" stroke-width="5"/>
<path fill-rule="evenodd" clip-rule="evenodd" d="M140 3H64.5C110.5 15 134 45.6667 140 59.5C140.039 59.3331 140.079 59.1664 140.12 59H140V3Z" fill="black"/>
<path d="M64.5 3V0.5L63.8689 5.41904L64.5 3ZM140 3H142.5V0.5H140V3ZM140 59.5L137.706 60.4948L140.703 67.4031L142.433 60.0745L140 59.5ZM140.12 59L142.549 59.5903L143.3 56.5H140.12V59ZM140 59H137.5V61.5H140V59ZM64.5 5.5H140V0.5H64.5V5.5ZM142.294 58.5052C136.008 44.0136 111.923 12.7875 65.1311 0.580957L63.8689 5.41904C109.077 17.2125 131.992 47.3198 137.706 60.4948L142.294 58.5052ZM137.69 58.4097C137.649 58.5814 137.608 58.7533 137.567 58.9255L142.433 60.0745C142.471 59.9128 142.51 59.7514 142.549 59.5903L137.69 58.4097ZM140.12 56.5H140V61.5H140.12V56.5ZM142.5 59V3H137.5V59H142.5Z" fill="white"/>
</svg>
